<svg xmlns="http://www.w3.org/2000/svg" viewBox="0 0 75 18"><path d="M55 0H39c-.5 0-1 .4-1 1v16c0 .5.4 1 1 1h8.6v-7h-2.3V8.3h2.3v-2c0-2.3 1.4-3.6 3.5-3.6 1 0 1.8.1 2.1.1v2.4h-1.4c-1.1 0-1.3.5-1.3 1.3v1.7h2.7l-.5 2.8h-2.3v7H55c.5 0 1-.4 1-1V1c0-.6-.5-1-1-1M9 0C6.6 0 6.2 0 5.3.1c-1 0-1.6.2-2.2.4-.6.2-1.1.5-1.6 1s-.8 1-1 1.6C.2 3.7.1 4.3.1 5.3 0 6.2 0 6.6 0 9s0 2.8.1 3.7c0 1 .2 1.6.4 2.2.2.6.6 1.1 1 1.6s1 .8 1.6 1c.6.2 1.2.4 2.2.4.9.1 1.3.1 3.7.1s2.8 0 3.7-.1c1 0 1.6-.2 2.2-.4.6-.2 1.1-.6 1.6-1s.8-1 1-1.6c.2-.6.4-1.2.4-2.2 0-1 .1-1.3.1-3.7s0-2.8-.1-3.7c0-1-.2-1.6-.4-2.2-.2-.6-.6-1.1-1-1.6s-1-.8-1.6-1c-.6-.2-1.2-.4-2.2-.4C11.8 0 11.4 0 9 0zm0 1.6c2.4 0 2.7 0 3.6.1.9 0 1.4.2 1.7.3.4.2.7.4 1 .7.3.3.5.6.7 1 .1.3.3.8.3 1.7 0 .9.1 1.2.1 3.6s0 2.7-.1 3.6c0 .9-.2 1.4-.3 1.7-.1.4-.4.7-.7 1-.3.3-.6.5-1 .7-.3.1-.8.3-1.7.3-1 0-1.2.1-3.6.1-2.4 0-2.7 0-3.6-.1-.9 0-1.4-.2-1.7-.3-.4-.1-.7-.4-1-.7-.3-.3-.5-.6-.7-1-.1-.3-.3-.8-.3-1.7V9 5.4c0-.9.2-1.4.3-1.7.2-.4.4-.7.7-1 .3-.3.6-.5 1-.7.3-.2.7-.3 1.6-.4H9zm0 2.8c-2.6 0-4.6 2-4.6 4.6s2.1 4.6 4.6 4.6 4.6-2.1 4.6-4.6-2-4.6-4.6-4.6zM9 12c-1.7 0-3-1.3-3-3s1.3-3 3-3 3 1.3 3 3-1.3 3-3 3zm5.9-7.8c0 .6-.5 1.1-1.1 1-.6 0-1-.5-1-1 0-.6.5-1.1 1.1-1.1.5 0 1 .5 1 1.1zM75 3.4c-.7.3-1.4.5-2.1.6.8-.5 1.3-1.2 1.6-2-.7.4-1.5.7-2.3.9-1.4-1.5-3.7-1.6-5.2-.2-1 .9-1.4 2.3-1.1 3.5-3.1-.1-5.8-1.6-7.6-3.8-.3.6-.5 1.2-.5 1.9 0 1.3.7 2.4 1.6 3.1-.6 0-1.2-.2-1.7-.5 0 1.8 1.2 3.3 3 3.6-.5.1-1.1.2-1.7.1.5 1.5 1.9 2.5 3.5 2.6-1.3 1-2.9 1.6-4.6 1.6-.3 0-.6 0-.9-.1 1.7 1.1 3.7 1.7 5.7 1.7 6.8 0 10.5-5.6 10.5-10.5v-.5c.7-.6 1.3-1.2 1.8-2zM36.6 4.7c-.2-.8-.8-1.4-1.6-1.6-1.4-.4-7-.4-7-.4s-5.6 0-7 .4c-.8.2-1.4.8-1.6 1.6-.3 1.4-.4 2.8-.4 4.3s.1 2.9.4 4.3c.2.8.8 1.4 1.6 1.6 1.4.4 7 .4 7 .4s5.6 0 7-.4c.8-.2 1.4-.8 1.6-1.6.3-1.4.4-2.8.4-4.3s-.1-2.9-.4-4.3zm-10.4 7V6.3L30.9 9l-4.7 2.7z"/></svg>